<mxfile host="app.diagrams.net" agent="Mozilla/5.0 (Windows NT 10.0; Win64; x64) AppleWebKit/537.36 (KHTML, like Gecko) Chrome/127.0.0.0 Safari/537.36" version="24.7.6">
  <diagram name="Page-1" id="0M0IsiOhNjohmRkA3XTA">
    <mxGraphModel dx="1647" dy="877" grid="1" gridSize="10" guides="1" tooltips="1" connect="1" arrows="1" fold="1" page="1" pageScale="1" pageWidth="850" pageHeight="1100" math="0" shadow="0">
      <root>
        <mxCell id="0" />
        <mxCell id="1" parent="0" />
        <mxCell id="BX7mlbRw4w8pPT2zZDJt-22" value="AWS Cloud" style="sketch=0;outlineConnect=0;gradientColor=none;html=1;whiteSpace=wrap;fontSize=12;fontStyle=0;shape=mxgraph.aws4.group;grIcon=mxgraph.aws4.group_aws_cloud;strokeColor=#AAB7B8;fillColor=none;verticalAlign=top;align=left;spacingLeft=30;fontColor=#AAB7B8;dashed=0;" parent="1" vertex="1">
          <mxGeometry x="40" y="130" width="780" height="890" as="geometry" />
        </mxCell>
        <mxCell id="BX7mlbRw4w8pPT2zZDJt-3" value="Public - ApplicationServer2" style="sketch=0;outlineConnect=0;gradientColor=none;html=1;whiteSpace=wrap;fontSize=12;fontStyle=0;shape=mxgraph.aws4.group;grIcon=mxgraph.aws4.group_subnet;strokeColor=#879196;fillColor=none;verticalAlign=top;align=left;spacingLeft=30;fontColor=#879196;dashed=0;" parent="1" vertex="1">
          <mxGeometry x="442.5" y="370" width="250" height="190" as="geometry" />
        </mxCell>
        <mxCell id="BX7mlbRw4w8pPT2zZDJt-4" value="Private- ApplicationServer1" style="sketch=0;outlineConnect=0;gradientColor=none;html=1;whiteSpace=wrap;fontSize=12;fontStyle=0;shape=mxgraph.aws4.group;grIcon=mxgraph.aws4.group_subnet;strokeColor=#879196;fillColor=none;verticalAlign=top;align=left;spacingLeft=30;fontColor=#879196;dashed=0;" parent="1" vertex="1">
          <mxGeometry x="110" y="640" width="280" height="180" as="geometry" />
        </mxCell>
        <mxCell id="BX7mlbRw4w8pPT2zZDJt-5" value="Private- DatabseServer2" style="sketch=0;outlineConnect=0;gradientColor=none;html=1;whiteSpace=wrap;fontSize=12;fontStyle=0;shape=mxgraph.aws4.group;grIcon=mxgraph.aws4.group_subnet;strokeColor=#879196;fillColor=none;verticalAlign=top;align=left;spacingLeft=30;fontColor=#879196;dashed=0;" parent="1" vertex="1">
          <mxGeometry x="430" y="635" width="270" height="180" as="geometry" />
        </mxCell>
        <mxCell id="BX7mlbRw4w8pPT2zZDJt-7" value="Amazon EC2" style="sketch=0;outlineConnect=0;fontColor=#232F3E;gradientColor=none;strokeColor=#ffffff;fillColor=#232F3E;dashed=0;verticalLabelPosition=middle;verticalAlign=bottom;align=center;html=1;whiteSpace=wrap;fontSize=10;fontStyle=1;spacing=3;shape=mxgraph.aws4.productIcon;prIcon=mxgraph.aws4.ec2;" parent="1" vertex="1">
          <mxGeometry x="540" y="430" width="40" height="70" as="geometry" />
        </mxCell>
        <mxCell id="BX7mlbRw4w8pPT2zZDJt-9" value="" style="sketch=0;outlineConnect=0;fontColor=#232F3E;gradientColor=none;fillColor=#C925D1;strokeColor=none;dashed=0;verticalLabelPosition=bottom;verticalAlign=top;align=center;html=1;fontSize=12;fontStyle=0;aspect=fixed;pointerEvents=1;shape=mxgraph.aws4.rds_instance;" parent="1" vertex="1">
          <mxGeometry x="225" y="710" width="50" height="50" as="geometry" />
        </mxCell>
        <mxCell id="BX7mlbRw4w8pPT2zZDJt-10" value="" style="sketch=0;outlineConnect=0;fontColor=#232F3E;gradientColor=none;fillColor=#C925D1;strokeColor=none;dashed=0;verticalLabelPosition=bottom;verticalAlign=top;align=center;html=1;fontSize=12;fontStyle=0;aspect=fixed;pointerEvents=1;shape=mxgraph.aws4.rds_instance;" parent="1" vertex="1">
          <mxGeometry x="510" y="700" width="50" height="50" as="geometry" />
        </mxCell>
        <mxCell id="BX7mlbRw4w8pPT2zZDJt-47" value="Actor" style="shape=umlActor;verticalLabelPosition=bottom;verticalAlign=top;html=1;outlineConnect=0;" parent="1" vertex="1">
          <mxGeometry x="370" width="30" height="60" as="geometry" />
        </mxCell>
        <mxCell id="BX7mlbRw4w8pPT2zZDJt-60" style="edgeStyle=orthogonalEdgeStyle;rounded=0;orthogonalLoop=1;jettySize=auto;html=1;exitX=0.25;exitY=1;exitDx=0;exitDy=0;" parent="1" source="BX7mlbRw4w8pPT2zZDJt-48" target="BX7mlbRw4w8pPT2zZDJt-55" edge="1">
          <mxGeometry relative="1" as="geometry">
            <mxPoint x="410" y="70" as="targetPoint" />
            <Array as="points">
              <mxPoint x="400" y="48" />
            </Array>
          </mxGeometry>
        </mxCell>
        <mxCell id="BX7mlbRw4w8pPT2zZDJt-48" value="" style="image;aspect=fixed;perimeter=ellipsePerimeter;html=1;align=center;shadow=0;dashed=0;spacingTop=3;image=img/lib/active_directory/laptop_client.svg;" parent="1" vertex="1">
          <mxGeometry x="397.5" width="45" height="50" as="geometry" />
        </mxCell>
        <mxCell id="BX7mlbRw4w8pPT2zZDJt-55" value="Internet&#xa;gateway" style="sketch=0;outlineConnect=0;fontColor=#232F3E;gradientColor=none;strokeColor=#232F3E;fillColor=#ffffff;dashed=0;verticalLabelPosition=bottom;verticalAlign=top;align=center;html=1;fontSize=12;fontStyle=0;aspect=fixed;shape=mxgraph.aws4.resourceIcon;resIcon=mxgraph.aws4.internet_gateway;" parent="1" vertex="1">
          <mxGeometry x="370" y="160" width="60" height="60" as="geometry" />
        </mxCell>
        <mxCell id="LzpftfMKJ6YS2ZLnZaJT-2" value="Public - ApplicationServer2" style="sketch=0;outlineConnect=0;gradientColor=none;html=1;whiteSpace=wrap;fontSize=12;fontStyle=0;shape=mxgraph.aws4.group;grIcon=mxgraph.aws4.group_subnet;strokeColor=#879196;fillColor=none;verticalAlign=top;align=left;spacingLeft=30;fontColor=#879196;dashed=0;" parent="1" vertex="1">
          <mxGeometry x="110" y="370" width="280" height="190" as="geometry" />
        </mxCell>
        <mxCell id="zm6lNL9CIixs5jg2WKDq-1" value="Amazon EC2" style="sketch=0;outlineConnect=0;fontColor=#232F3E;gradientColor=none;strokeColor=#ffffff;fillColor=#232F3E;dashed=0;verticalLabelPosition=middle;verticalAlign=bottom;align=center;html=1;whiteSpace=wrap;fontSize=10;fontStyle=1;spacing=3;shape=mxgraph.aws4.productIcon;prIcon=mxgraph.aws4.ec2;" parent="1" vertex="1">
          <mxGeometry x="220" y="430" width="40" height="70" as="geometry" />
        </mxCell>
        <mxCell id="zm6lNL9CIixs5jg2WKDq-2" value="Security group" style="fillColor=none;strokeColor=#DD3522;verticalAlign=top;fontStyle=0;fontColor=#DD3522;whiteSpace=wrap;html=1;" parent="1" vertex="1">
          <mxGeometry x="180" y="400" width="125" height="110" as="geometry" />
        </mxCell>
        <mxCell id="zm6lNL9CIixs5jg2WKDq-3" value="Security group" style="fillColor=none;strokeColor=#DD3522;verticalAlign=top;fontStyle=0;fontColor=#DD3522;whiteSpace=wrap;html=1;" parent="1" vertex="1">
          <mxGeometry x="497.5" y="400" width="125" height="110" as="geometry" />
        </mxCell>
        <mxCell id="zm6lNL9CIixs5jg2WKDq-4" value="Security group" style="fillColor=none;strokeColor=#DD3522;verticalAlign=top;fontStyle=0;fontColor=#DD3522;whiteSpace=wrap;html=1;" parent="1" vertex="1">
          <mxGeometry x="187.5" y="675" width="125" height="110" as="geometry" />
        </mxCell>
        <mxCell id="zm6lNL9CIixs5jg2WKDq-5" value="Security group" style="fillColor=none;strokeColor=#DD3522;verticalAlign=top;fontStyle=0;fontColor=#DD3522;whiteSpace=wrap;html=1;" parent="1" vertex="1">
          <mxGeometry x="472.5" y="670" width="125" height="110" as="geometry" />
        </mxCell>
        <mxCell id="zm6lNL9CIixs5jg2WKDq-6" value="Network&#xa;access&#xa;control list" style="sketch=0;outlineConnect=0;fontColor=#232F3E;gradientColor=none;strokeColor=#232F3E;fillColor=#ffffff;dashed=0;verticalLabelPosition=bottom;verticalAlign=top;align=center;html=1;fontSize=12;fontStyle=0;aspect=fixed;shape=mxgraph.aws4.resourceIcon;resIcon=mxgraph.aws4.network_access_control_list;" parent="1" vertex="1">
          <mxGeometry x="80" y="420" width="60" height="60" as="geometry" />
        </mxCell>
        <mxCell id="zm6lNL9CIixs5jg2WKDq-7" value="Network&#xa;access&#xa;control list" style="sketch=0;outlineConnect=0;fontColor=#232F3E;gradientColor=none;strokeColor=#232F3E;fillColor=#ffffff;dashed=0;verticalLabelPosition=bottom;verticalAlign=top;align=center;html=1;fontSize=12;fontStyle=0;aspect=fixed;shape=mxgraph.aws4.resourceIcon;resIcon=mxgraph.aws4.network_access_control_list;" parent="1" vertex="1">
          <mxGeometry x="670" y="425" width="60" height="60" as="geometry" />
        </mxCell>
        <mxCell id="zm6lNL9CIixs5jg2WKDq-8" value="Network&#xa;access&#xa;control list" style="sketch=0;outlineConnect=0;fontColor=#232F3E;gradientColor=none;strokeColor=#232F3E;fillColor=#ffffff;dashed=0;verticalLabelPosition=bottom;verticalAlign=top;align=center;html=1;fontSize=12;fontStyle=0;aspect=fixed;shape=mxgraph.aws4.resourceIcon;resIcon=mxgraph.aws4.network_access_control_list;" parent="1" vertex="1">
          <mxGeometry x="670" y="690" width="60" height="60" as="geometry" />
        </mxCell>
        <mxCell id="zm6lNL9CIixs5jg2WKDq-9" value="Network&#xa;access&#xa;control list" style="sketch=0;outlineConnect=0;fontColor=#232F3E;gradientColor=none;strokeColor=#232F3E;fillColor=#ffffff;dashed=0;verticalLabelPosition=bottom;verticalAlign=top;align=center;html=1;fontSize=12;fontStyle=0;aspect=fixed;shape=mxgraph.aws4.resourceIcon;resIcon=mxgraph.aws4.network_access_control_list;" parent="1" vertex="1">
          <mxGeometry x="80" y="700" width="60" height="60" as="geometry" />
        </mxCell>
        <mxCell id="zm6lNL9CIixs5jg2WKDq-10" value="Availability Zone" style="fillColor=none;strokeColor=#147EBA;dashed=1;verticalAlign=top;fontStyle=0;fontColor=#147EBA;whiteSpace=wrap;html=1;" parent="1" vertex="1">
          <mxGeometry x="182.5" y="330" width="130" height="260" as="geometry" />
        </mxCell>
        <mxCell id="zm6lNL9CIixs5jg2WKDq-11" value="Availability Zone" style="fillColor=none;strokeColor=#147EBA;dashed=1;verticalAlign=top;fontStyle=0;fontColor=#147EBA;whiteSpace=wrap;html=1;" parent="1" vertex="1">
          <mxGeometry x="520" y="320" width="130" height="260" as="geometry" />
        </mxCell>
        <mxCell id="zm6lNL9CIixs5jg2WKDq-12" value="Availability Zone" style="fillColor=none;strokeColor=#147EBA;dashed=1;verticalAlign=top;fontStyle=0;fontColor=#147EBA;whiteSpace=wrap;html=1;" parent="1" vertex="1">
          <mxGeometry x="520" y="605" width="130" height="260" as="geometry" />
        </mxCell>
        <mxCell id="zm6lNL9CIixs5jg2WKDq-14" value="Availability Zone" style="fillColor=none;strokeColor=#147EBA;dashed=1;verticalAlign=top;fontStyle=0;fontColor=#147EBA;whiteSpace=wrap;html=1;" parent="1" vertex="1">
          <mxGeometry x="177.5" y="610" width="130" height="265" as="geometry" />
        </mxCell>
      </root>
    </mxGraphModel>
  </diagram>
</mxfile>
